<svg id="edit" xmlns="http://www.w3.org/2000/svg" width="97.915" height="97.92" viewBox="0 0 97.915 97.92">
  <path id="Path_58" data-name="Path 58" d="M13.436,62.82a2.059,2.059,0,0,1-1.444-.6,2.038,2.038,0,0,1-.559-1.84l2.885-14.423a2,2,0,0,1,.559-1.044L46.611,13.183a6.132,6.132,0,0,1,8.654,0l5.769,5.769a6.124,6.124,0,0,1,0,8.654L29.3,59.34a2.029,2.029,0,0,1-1.044.559L13.832,62.784A2.164,2.164,0,0,1,13.436,62.82ZM18.2,47.361,16.039,58.177l10.816-2.162,31.3-31.3a2.041,2.041,0,0,0,0-2.885l-5.769-5.769a2.041,2.041,0,0,0-2.885,0ZM27.859,57.9H27.9Z" transform="translate(35.091 35.1)"/>
  <path id="Path_59" data-name="Path 59" d="M38.76,76.44H10.2A10.209,10.209,0,0,1,0,66.24V13.2A10.209,10.209,0,0,1,10.2,3h8.16a2.04,2.04,0,1,1,0,4.08H10.2A6.127,6.127,0,0,0,4.08,13.2V66.24a6.127,6.127,0,0,0,6.12,6.12H38.76a2.04,2.04,0,1,1,0,4.08Z" transform="translate(0 9.24)"/>
  <path id="Path_60" data-name="Path 60" d="M30.36,39.72a2.041,2.041,0,0,1-2.04-2.04V13.2A6.127,6.127,0,0,0,22.2,7.08H14.04a2.04,2.04,0,1,1,0-4.08H22.2A10.209,10.209,0,0,1,32.4,13.2V37.68A2.041,2.041,0,0,1,30.36,39.72Z" transform="translate(36.96 9.24)"/>
  <path id="Path_61" data-name="Path 61" d="M34.6,24.48H10.12A6.127,6.127,0,0,1,4,18.36V10.2A2.041,2.041,0,0,1,6.04,8.16h6.324a10.2,10.2,0,0,1,19.992,0H38.68a2.041,2.041,0,0,1,2.04,2.04v8.16A6.127,6.127,0,0,1,34.6,24.48ZM8.08,12.24v6.12a2.046,2.046,0,0,0,2.04,2.04H34.6a2.046,2.046,0,0,0,2.04-2.04V12.24H30.52a2.041,2.041,0,0,1-2.04-2.04,6.12,6.12,0,1,0-12.24,0,2.041,2.041,0,0,1-2.04,2.04Z" transform="translate(12.32)"/>
  <path id="Path_62" data-name="Path 62" d="M45.84,12.08H5.04A2.04,2.04,0,1,1,5.04,8h40.8a2.04,2.04,0,1,1,0,4.08Z" transform="translate(9.24 24.64)"/>
  <path id="Path_63" data-name="Path 63" d="M45.84,15.08H5.04a2.04,2.04,0,0,1,0-4.08h40.8a2.04,2.04,0,0,1,0,4.08Z" transform="translate(9.24 33.88)"/>
  <path id="Path_64" data-name="Path 64" d="M45.84,18.08H5.04a2.04,2.04,0,0,1,0-4.08h40.8a2.04,2.04,0,1,1,0,4.08Z" transform="translate(9.24 43.12)"/>
</svg>
