<svg xmlns="http://www.w3.org/2000/svg" width="97.916" height="97.92" viewBox="0 0 97.916 97.92">
  <g id="feedback" transform="translate(0)">
    <path id="Path_65" data-name="Path 65" d="M20.315,50.648h-2.2A6.127,6.127,0,0,1,12,44.528V21.468a6.127,6.127,0,0,1,6.12-6.12h2.2a6.127,6.127,0,0,1,6.12,6.12v23.06A6.127,6.127,0,0,1,20.315,50.648Zm-2.2-31.22a2.046,2.046,0,0,0-2.04,2.04v23.06a2.046,2.046,0,0,0,2.04,2.04h2.2a2.046,2.046,0,0,0,2.04-2.04V21.468a2.046,2.046,0,0,0-2.04-2.04Z" transform="translate(36.96 47.272)"/>
    <path id="Path_66" data-name="Path 66" d="M41.018,60.96H37.444c-15.165,0-21.844-5.092-22.126-5.312a2.04,2.04,0,1,1,2.517-3.211c.045.037,6.006,4.443,19.608,4.443h3.574a5.748,5.748,0,0,0,5.688-4.818L48.986,38.4A5.764,5.764,0,0,0,43.3,31.686H31.6a2.044,2.044,0,0,1-1.7-3.174,13.329,13.329,0,0,0,1.608-6.675c-.008-4.19-1.746-5.757-2.844-5.757a1.28,1.28,0,0,0-.428.045c-.008.024-.457.608-.457,3.77,0,7.96-9.816,13.289-10.237,13.513a2.04,2.04,0,0,1-1.922-3.6c2.244-1.208,8.074-5.341,8.074-9.914,0-2.758,0-7.895,4.969-7.895,3.329,0,6.916,3.08,6.916,9.845A19.046,19.046,0,0,1,34.7,27.61h8.592a9.849,9.849,0,0,1,9.71,11.465l-2.281,13.66a9.8,9.8,0,0,1-9.706,8.225Z" transform="translate(44.776 36.96)"/>
    <path id="Path_67" data-name="Path 67" d="M38.76,76.44H10.2A10.209,10.209,0,0,1,0,66.24V13.2A10.209,10.209,0,0,1,10.2,3h8.16a2.04,2.04,0,1,1,0,4.08H10.2A6.127,6.127,0,0,0,4.08,13.2V66.24a6.127,6.127,0,0,0,6.12,6.12H38.76a2.04,2.04,0,1,1,0,4.08Z" transform="translate(0 9.24)"/>
    <path id="Path_68" data-name="Path 68" d="M34.6,24.48H10.12A6.127,6.127,0,0,1,4,18.36V10.2A2.041,2.041,0,0,1,6.04,8.16h6.324a10.2,10.2,0,0,1,19.992,0H38.68a2.041,2.041,0,0,1,2.04,2.04v8.16A6.127,6.127,0,0,1,34.6,24.48ZM8.08,12.24v6.12a2.046,2.046,0,0,0,2.04,2.04H34.6a2.046,2.046,0,0,0,2.04-2.04V12.24H30.52a2.041,2.041,0,0,1-2.04-2.04,6.12,6.12,0,1,0-12.24,0,2.041,2.041,0,0,1-2.04,2.04Z" transform="translate(12.32)"/>
    <path id="Path_69" data-name="Path 69" d="M45.84,12.08H5.04A2.04,2.04,0,1,1,5.04,8h40.8a2.04,2.04,0,1,1,0,4.08Z" transform="translate(9.24 24.64)"/>
    <path id="Path_70" data-name="Path 70" d="M45.84,15.08H5.04a2.04,2.04,0,0,1,0-4.08h40.8a2.04,2.04,0,0,1,0,4.08Z" transform="translate(9.24 33.88)"/>
    <path id="Path_71" data-name="Path 71" d="M29.52,18.08H5.04a2.04,2.04,0,0,1,0-4.08H29.52a2.04,2.04,0,1,1,0,4.08Z" transform="translate(9.24 43.12)"/>
    <path id="Path_72" data-name="Path 72" d="M30.36,31.56a2.041,2.041,0,0,1-2.04-2.04V13.2A6.127,6.127,0,0,0,22.2,7.08H14.04a2.04,2.04,0,1,1,0-4.08H22.2A10.209,10.209,0,0,1,32.4,13.2V29.52A2.041,2.041,0,0,1,30.36,31.56Z" transform="translate(36.96 9.24)"/>
  </g>
</svg>
