<svg xmlns="http://www.w3.org/2000/svg" width="29.035" height="23.627" viewBox="0 0 29.035 23.627">
  <path id="Icon_ionic-logo-twitter" data-name="Icon ionic-logo-twitter" d="M30.449,7.3a12.043,12.043,0,0,1-3.421.941,5.978,5.978,0,0,0,2.621-3.3,11.837,11.837,0,0,1-3.784,1.446,5.955,5.955,0,0,0-10.306,4.073,5.832,5.832,0,0,0,.154,1.36A16.882,16.882,0,0,1,3.431,5.589a5.969,5.969,0,0,0,1.852,7.962,5.818,5.818,0,0,1-2.707-.744v.074a5.962,5.962,0,0,0,4.781,5.845,6,6,0,0,1-1.569.209,5.62,5.62,0,0,1-1.12-.111,5.966,5.966,0,0,0,5.568,4.141,11.943,11.943,0,0,1-7.4,2.553,12.075,12.075,0,0,1-1.421-.086,16.651,16.651,0,0,0,9.119,2.695c10.971,0,16.963-9.088,16.963-16.97,0-.258-.006-.517-.018-.769A12.126,12.126,0,0,0,30.449,7.3Z" transform="translate(-1.413 -4.5)"/>
</svg>
