<svg xmlns="http://www.w3.org/2000/svg" width="33.603" height="23.627" viewBox="0 0 33.603 23.627">
  <path id="Icon_awesome-youtube" data-name="Icon awesome-youtube" d="M33.951,8.2a4.222,4.222,0,0,0-2.971-2.99C28.359,4.5,17.851,4.5,17.851,4.5s-10.508,0-13.128.707A4.222,4.222,0,0,0,1.752,8.2a44.293,44.293,0,0,0-.7,8.141,44.293,44.293,0,0,0,.7,8.141A4.159,4.159,0,0,0,4.723,27.42c2.621.707,13.128.707,13.128.707s10.508,0,13.128-.707a4.159,4.159,0,0,0,2.971-2.942,44.293,44.293,0,0,0,.7-8.141,44.293,44.293,0,0,0-.7-8.141ZM14.415,21.334V11.341l8.783,5-8.782,5Z" transform="translate(-1.05 -4.5)"/>
</svg>
