<svg id="secure" xmlns="http://www.w3.org/2000/svg" width="97.92" height="97.92" viewBox="0 0 97.92 97.92">
  <path id="Path_78" data-name="Path 78" d="M36.48,67.121a2.047,2.047,0,0,1-.792-.159C34.717,66.55,12,56.733,12,36.668V19.617a2.042,2.042,0,0,1,1.387-1.934l22.44-7.577a2.043,2.043,0,0,1,1.306,0l22.44,7.577a2.038,2.038,0,0,1,1.387,1.934v17.05c0,20.065-22.717,29.882-23.688,30.294a2.047,2.047,0,0,1-.792.159ZM16.08,21.086V36.668c0,15.439,16.544,24.309,20.4,26.165,3.852-1.86,20.4-10.767,20.4-26.165V21.086L36.48,14.2Z" transform="translate(36.96 30.799)"/>
  <path id="Path_79" data-name="Path 79" d="M25.2,32.861a.961.961,0,0,1-.11,0,2.025,2.025,0,0,1-1.481-.763l-8.16-10.2a2.041,2.041,0,0,1,3.186-2.55l6.732,8.417L38.034,15.1a2.04,2.04,0,0,1,2.885,2.885l-14.28,14.28a2.032,2.032,0,0,1-1.44.6Z" transform="translate(46.201 44.659)"/>
  <path id="Path_80" data-name="Path 80" d="M38.76,76.44H10.2A10.209,10.209,0,0,1,0,66.24V13.2A10.209,10.209,0,0,1,10.2,3h8.16a2.04,2.04,0,1,1,0,4.08H10.2A6.127,6.127,0,0,0,4.08,13.2V66.24a6.127,6.127,0,0,0,6.12,6.12H38.76a2.04,2.04,0,1,1,0,4.08Z" transform="translate(0 9.24)"/>
  <path id="Path_81" data-name="Path 81" d="M30.36,25.44a2.041,2.041,0,0,1-2.04-2.04V13.2A6.127,6.127,0,0,0,22.2,7.08H14.04a2.04,2.04,0,1,1,0-4.08H22.2A10.209,10.209,0,0,1,32.4,13.2V23.4A2.041,2.041,0,0,1,30.36,25.44Z" transform="translate(36.96 9.24)"/>
  <path id="Path_82" data-name="Path 82" d="M34.6,24.48H10.12A6.127,6.127,0,0,1,4,18.36V10.2A2.041,2.041,0,0,1,6.04,8.16h6.324a10.2,10.2,0,0,1,19.992,0H38.68a2.041,2.041,0,0,1,2.04,2.04v8.16A6.127,6.127,0,0,1,34.6,24.48ZM8.08,12.24v6.12a2.046,2.046,0,0,0,2.04,2.04H34.6a2.046,2.046,0,0,0,2.04-2.04V12.24H30.52a2.041,2.041,0,0,1-2.04-2.04,6.12,6.12,0,1,0-12.24,0,2.041,2.041,0,0,1-2.04,2.04Z" transform="translate(12.32)"/>
  <path id="Path_83" data-name="Path 83" d="M45.84,12.08H5.04A2.04,2.04,0,1,1,5.04,8h40.8a2.04,2.04,0,1,1,0,4.08Z" transform="translate(9.24 24.64)"/>
  <path id="Path_84" data-name="Path 84" d="M29.52,15.08H5.04a2.04,2.04,0,0,1,0-4.08H29.52a2.04,2.04,0,1,1,0,4.08Z" transform="translate(9.24 33.88)"/>
  <path id="Path_85" data-name="Path 85" d="M29.52,18.08H5.04a2.04,2.04,0,0,1,0-4.08H29.52a2.04,2.04,0,1,1,0,4.08Z" transform="translate(9.24 43.12)"/>
</svg>
