<svg xmlns="http://www.w3.org/2000/svg" width="97.92" height="97.92" viewBox="0 0 97.92 97.92">
  <g id="stamped_1_" data-name="stamped (1)" transform="translate(0)">
    <path id="Path_86" data-name="Path 86" d="M38.76,76.44H10.2A10.209,10.209,0,0,1,0,66.24V13.2A10.209,10.209,0,0,1,10.2,3h8.16a2.04,2.04,0,1,1,0,4.08H10.2A6.127,6.127,0,0,0,4.08,13.2V66.24a6.127,6.127,0,0,0,6.12,6.12H38.76a2.04,2.04,0,1,1,0,4.08Z" transform="translate(0 9.24)"/>
    <path id="Path_87" data-name="Path 87" d="M34.6,24.48H10.12A6.127,6.127,0,0,1,4,18.36V10.2A2.041,2.041,0,0,1,6.04,8.16h6.324a10.2,10.2,0,0,1,19.992,0H38.68a2.041,2.041,0,0,1,2.04,2.04v8.16A6.127,6.127,0,0,1,34.6,24.48ZM8.08,12.24v6.12a2.046,2.046,0,0,0,2.04,2.04H34.6a2.046,2.046,0,0,0,2.04-2.04V12.24H30.52a2.041,2.041,0,0,1-2.04-2.04,6.12,6.12,0,1,0-12.24,0,2.041,2.041,0,0,1-2.04,2.04Z" transform="translate(12.32)"/>
    <path id="Path_88" data-name="Path 88" d="M45.84,12.08H5.04A2.04,2.04,0,1,1,5.04,8h40.8a2.04,2.04,0,1,1,0,4.08Z" transform="translate(9.24 24.64)"/>
    <path id="Path_89" data-name="Path 89" d="M43.8,15.08H5.04a2.04,2.04,0,0,1,0-4.08H43.8a2.04,2.04,0,0,1,0,4.08Z" transform="translate(9.24 33.88)"/>
    <path id="Path_90" data-name="Path 90" d="M39.72,18.08H5.04a2.04,2.04,0,0,1,0-4.08H39.72a2.04,2.04,0,0,1,0,4.08Z" transform="translate(9.24 43.12)"/>
    <path id="Path_91" data-name="Path 91" d="M34.9,49.758H22.662a2.041,2.041,0,0,1-2.04-2.04v-7.98a6.752,6.752,0,0,0-2.105-4.59,14.136,14.136,0,0,1-3.782-12.489,14.285,14.285,0,0,1,28.327,2.619,14.072,14.072,0,0,1-4.231,10.086,5.792,5.792,0,0,0-1.889,4.023v8.331A2.041,2.041,0,0,1,34.9,49.758Zm-10.2-4.08h8.16V39.387a9.786,9.786,0,0,1,3.1-6.924,10.028,10.028,0,0,0,3.019-7.185,10.2,10.2,0,0,0-20.229-1.893A10.086,10.086,0,0,0,21.442,32.3a10.63,10.63,0,0,1,3.26,7.434Z" transform="translate(44.658 33.882)"/>
    <path id="Path_92" data-name="Path 92" d="M58.92,37.86H14.04A2.041,2.041,0,0,1,12,35.82V27.183a6.123,6.123,0,0,1,5.357-6.071l12.746-1.6L42.6,19.5l13,1.612a6.123,6.123,0,0,1,5.357,6.071V35.82A2.041,2.041,0,0,1,58.92,37.86ZM16.08,33.78h40.8v-6.6a2.04,2.04,0,0,0-1.787-2.024l-12.746-1.6L30.36,23.58,17.867,25.159a2.04,2.04,0,0,0-1.787,2.024Z" transform="translate(36.96 60.06)"/>
    <path id="Path_93" data-name="Path 93" d="M30.36,27.48a2.041,2.041,0,0,1-2.04-2.04V13.2A6.127,6.127,0,0,0,22.2,7.08H14.04a2.04,2.04,0,1,1,0-4.08H22.2A10.209,10.209,0,0,1,32.4,13.2V25.44A2.041,2.041,0,0,1,30.36,27.48Z" transform="translate(36.96 9.24)"/>
  </g>
</svg>
