<svg xmlns="http://www.w3.org/2000/svg" width="97.902" height="97.912" viewBox="0 0 97.902 97.912">
  <g id="touch" transform="translate(0)">
    <path id="Path_98" data-name="Path 98" d="M31.415,27.876a2.049,2.049,0,0,1-1.444-.6l-8.654-8.654a2.04,2.04,0,1,0-2.885,2.885A2.04,2.04,0,1,1,15.548,24.4,6.119,6.119,0,0,1,24.2,15.742L32.86,24.4a2.038,2.038,0,0,1-1.444,3.48Z" transform="translate(42.376 42.981)" fill="#4e8f02"/>
    <path id="Path_99" data-name="Path 99" d="M19.108,24.243a2.049,2.049,0,0,1-1.444-.6,6.139,6.139,0,0,1,0-8.654,6.276,6.276,0,0,1,8.658,0l5.769,5.769a2.04,2.04,0,0,1-2.885,2.885l-5.769-5.769a2.041,2.041,0,0,0-2.889,2.885,2.038,2.038,0,0,1-1.44,3.48Z" transform="translate(48.91 40.845)" fill="#4e8f02"/>
    <path id="Path_100" data-name="Path 100" d="M43.065,59.255a18.151,18.151,0,0,1-4.5-.563L24.342,55.065a2.02,2.02,0,0,1-1.257-.947,7.326,7.326,0,0,1,1.191-8.809,7.837,7.837,0,0,1,5.137-2.077l-17.4-17.4a6.124,6.124,0,0,1,0-8.654,6.276,6.276,0,0,1,8.658,0L37.977,34.485a2.04,2.04,0,1,1-2.885,2.885L17.781,20.062a2.1,2.1,0,0,0-2.885,0,2.041,2.041,0,0,0,0,2.885l21.636,21.64a2.04,2.04,0,0,1-2.085,3.378c-1.738-.567-5.8-1.265-7.291.228a3.1,3.1,0,0,0-.836,3.166l13.252,3.378A14.334,14.334,0,0,0,53.2,51l4.974-4.969a14.3,14.3,0,0,0,0-20.2l-8.658-8.654a2.088,2.088,0,0,0-2.885,0,2.029,2.029,0,0,0,0,2.885,2.04,2.04,0,1,1-2.885,2.885,6.112,6.112,0,0,1,0-8.658,6.255,6.255,0,0,1,8.654,0l8.654,8.654a18.385,18.385,0,0,1,0,25.965l-4.974,4.969a18.4,18.4,0,0,1-13.011,5.377Z" transform="translate(31.485 38.657)" fill="#4e8f02"/>
    <path id="Path_101" data-name="Path 101" d="M42.84,76.44H10.2A10.212,10.212,0,0,1,0,66.24V13.2A10.212,10.212,0,0,1,10.2,3h8.16a2.04,2.04,0,1,1,0,4.08H10.2A6.127,6.127,0,0,0,4.08,13.2V66.24a6.127,6.127,0,0,0,6.12,6.12H42.84a2.04,2.04,0,1,1,0,4.08Z" transform="translate(0 9.24)" fill="#4e8f02"/>
    <path id="Path_102" data-name="Path 102" d="M34.6,24.48H10.12A6.127,6.127,0,0,1,4,18.36V10.2A2.041,2.041,0,0,1,6.04,8.16h6.324a10.2,10.2,0,0,1,19.992,0H38.68a2.041,2.041,0,0,1,2.04,2.04v8.16A6.127,6.127,0,0,1,34.6,24.48ZM8.08,12.24v6.12a2.043,2.043,0,0,0,2.04,2.04H34.6a2.043,2.043,0,0,0,2.04-2.04V12.24H30.52a2.041,2.041,0,0,1-2.04-2.04,6.12,6.12,0,1,0-12.24,0,2.041,2.041,0,0,1-2.04,2.04Z" transform="translate(12.32)" fill="#4e8f02"/>
    <path id="Path_103" data-name="Path 103" d="M30.36,39.72a2.041,2.041,0,0,1-2.04-2.04V13.2A6.127,6.127,0,0,0,22.2,7.08H14.04a2.04,2.04,0,1,1,0-4.08H22.2A10.212,10.212,0,0,1,32.4,13.2V37.68A2.041,2.041,0,0,1,30.36,39.72Z" transform="translate(36.96 9.24)" fill="#4e8f02"/>
    <path id="Path_104" data-name="Path 104" d="M45.84,12.08H5.04A2.04,2.04,0,1,1,5.04,8h40.8a2.04,2.04,0,1,1,0,4.08Z" transform="translate(9.24 24.64)" fill="#4e8f02"/>
    <path id="Path_105" data-name="Path 105" d="M45.84,15.08H5.04a2.04,2.04,0,0,1,0-4.08h40.8a2.04,2.04,0,0,1,0,4.08Z" transform="translate(9.24 33.88)" fill="#4e8f02"/>
    <path id="Path_106" data-name="Path 106" d="M25.44,18.08H5.04a2.04,2.04,0,0,1,0-4.08h20.4a2.04,2.04,0,0,1,0,4.08Z" transform="translate(9.24 43.12)" fill="#4e8f02"/>
  </g>
</svg>
